<?xml version="1.0" encoding="utf-8" standalone="no"?>
<!DOCTYPE svg PUBLIC "-//W3C//DTD SVG 1.1//EN"
  "http://www.w3.org/Graphics/SVG/1.1/DTD/svg11.dtd">
<!-- Created with matplotlib (https://matplotlib.org/) -->
<svg height="288pt" version="1.1" viewBox="0 0 432 288" width="432pt" xmlns="http://www.w3.org/2000/svg" xmlns:xlink="http://www.w3.org/1999/xlink">
 <metadata>
  <rdf:RDF xmlns:cc="http://creativecommons.org/ns#" xmlns:dc="http://purl.org/dc/elements/1.1/" xmlns:rdf="http://www.w3.org/1999/02/22-rdf-syntax-ns#">
   <cc:Work>
    <dc:type rdf:resource="http://purl.org/dc/dcmitype/StillImage"/>
    <dc:date>2021-09-28T10:27:06.959104</dc:date>
    <dc:format>image/svg+xml</dc:format>
    <dc:creator>
     <cc:Agent>
      <dc:title>Matplotlib v3.3.4, https://matplotlib.org/</dc:title>
     </cc:Agent>
    </dc:creator>
   </cc:Work>
  </rdf:RDF>
 </metadata>
 <defs>
  <style type="text/css">*{stroke-linecap:butt;stroke-linejoin:round;}</style>
 </defs>
 <g id="figure_1">
  <g id="patch_1">
   <path d="M 0 288 
L 432 288 
L 432 0 
L 0 0 
z
" style="fill:none;"/>
  </g>
  <g id="axes_1">
   <g id="patch_2">
    <path d="M 54 252 
L 388.8 252 
L 388.8 34.56 
L 54 34.56 
z
" style="fill:#ffffff;"/>
   </g>
   <g id="matplotlib.axis_1">
    <g id="xtick_1">
     <g id="line2d_1">
      <defs>
       <path d="M 0 0 
L 0 9 
" id="m5571a35c5a" style="stroke:#262626;stroke-width:1.875;"/>
      </defs>
      <g>
       <use style="fill:#262626;stroke:#262626;stroke-width:1.875;" x="62.37" xlink:href="#m5571a35c5a" y="252"/>
      </g>
     </g>
     <g id="text_1">
      <!-- ALD6 -->
      <g style="fill:#262626;" transform="translate(66.635508 305.773203)rotate(-90)scale(0.165 -0.165)">
       <defs>
        <path d="M -0.140625 0 
L 27.34375 71.578125 
L 37.546875 71.578125 
L 66.84375 0 
L 56.0625 0 
L 47.703125 21.6875 
L 17.78125 21.6875 
L 9.90625 0 
z
M 20.515625 29.390625 
L 44.78125 29.390625 
L 37.3125 49.21875 
Q 33.890625 58.25 32.234375 64.0625 
Q 30.859375 57.171875 28.375 50.390625 
z
" id="ArialMT-65"/>
        <path d="M 7.328125 0 
L 7.328125 71.578125 
L 16.796875 71.578125 
L 16.796875 8.453125 
L 52.046875 8.453125 
L 52.046875 0 
z
" id="ArialMT-76"/>
        <path d="M 7.71875 0 
L 7.71875 71.578125 
L 32.375 71.578125 
Q 40.71875 71.578125 45.125 70.5625 
Q 51.265625 69.140625 55.609375 65.4375 
Q 61.28125 60.640625 64.078125 53.1875 
Q 66.890625 45.75 66.890625 36.1875 
Q 66.890625 28.03125 64.984375 21.734375 
Q 63.09375 15.4375 60.109375 11.296875 
Q 57.125 7.171875 53.578125 4.796875 
Q 50.046875 2.4375 45.046875 1.21875 
Q 40.046875 0 33.546875 0 
z
M 17.1875 8.453125 
L 32.46875 8.453125 
Q 39.546875 8.453125 43.578125 9.765625 
Q 47.609375 11.078125 50 13.484375 
Q 53.375 16.84375 55.25 22.53125 
Q 57.125 28.21875 57.125 36.328125 
Q 57.125 47.5625 53.4375 53.59375 
Q 49.75 59.625 44.484375 61.671875 
Q 40.671875 63.140625 32.234375 63.140625 
L 17.1875 63.140625 
z
" id="ArialMT-68"/>
        <path d="M 49.75 54.046875 
L 41.015625 53.375 
Q 39.84375 58.546875 37.703125 60.890625 
Q 34.125 64.65625 28.90625 64.65625 
Q 24.703125 64.65625 21.53125 62.3125 
Q 17.390625 59.28125 14.984375 53.46875 
Q 12.59375 47.65625 12.5 36.921875 
Q 15.671875 41.75 20.265625 44.09375 
Q 24.859375 46.4375 29.890625 46.4375 
Q 38.671875 46.4375 44.84375 39.96875 
Q 51.03125 33.5 51.03125 23.25 
Q 51.03125 16.5 48.125 10.71875 
Q 45.21875 4.9375 40.140625 1.859375 
Q 35.0625 -1.21875 28.609375 -1.21875 
Q 17.625 -1.21875 10.6875 6.859375 
Q 3.765625 14.9375 3.765625 33.5 
Q 3.765625 54.25 11.421875 63.671875 
Q 18.109375 71.875 29.4375 71.875 
Q 37.890625 71.875 43.28125 67.140625 
Q 48.6875 62.40625 49.75 54.046875 
z
M 13.875 23.1875 
Q 13.875 18.65625 15.796875 14.5 
Q 17.71875 10.359375 21.1875 8.171875 
Q 24.65625 6 28.46875 6 
Q 34.03125 6 38.03125 10.484375 
Q 42.046875 14.984375 42.046875 22.703125 
Q 42.046875 30.125 38.078125 34.390625 
Q 34.125 38.671875 28.125 38.671875 
Q 22.171875 38.671875 18.015625 34.390625 
Q 13.875 30.125 13.875 23.1875 
z
" id="ArialMT-54"/>
       </defs>
       <use xlink:href="#ArialMT-65"/>
       <use x="66.699219" xlink:href="#ArialMT-76"/>
       <use x="122.314453" xlink:href="#ArialMT-68"/>
       <use x="194.53125" xlink:href="#ArialMT-54"/>
      </g>
     </g>
    </g>
    <g id="xtick_2">
     <g id="line2d_2">
      <g>
       <use style="fill:#262626;stroke:#262626;stroke-width:1.875;" x="79.11" xlink:href="#m5571a35c5a" y="252"/>
      </g>
     </g>
     <g id="text_2">
      <!-- r44 -->
      <g style="fill:#262626;" transform="translate(83.375508 288.345078)rotate(-90)scale(0.165 -0.165)">
       <defs>
        <path d="M 6.5 0 
L 6.5 51.859375 
L 14.40625 51.859375 
L 14.40625 44 
Q 17.4375 49.515625 20 51.265625 
Q 22.5625 53.03125 25.640625 53.03125 
Q 30.078125 53.03125 34.671875 50.203125 
L 31.640625 42.046875 
Q 28.421875 43.953125 25.203125 43.953125 
Q 22.3125 43.953125 20.015625 42.21875 
Q 17.71875 40.484375 16.75 37.40625 
Q 15.28125 32.71875 15.28125 27.15625 
L 15.28125 0 
z
" id="ArialMT-114"/>
        <path d="M 32.328125 0 
L 32.328125 17.140625 
L 1.265625 17.140625 
L 1.265625 25.203125 
L 33.9375 71.578125 
L 41.109375 71.578125 
L 41.109375 25.203125 
L 50.78125 25.203125 
L 50.78125 17.140625 
L 41.109375 17.140625 
L 41.109375 0 
z
M 32.328125 25.203125 
L 32.328125 57.46875 
L 9.90625 25.203125 
z
" id="ArialMT-52"/>
       </defs>
       <use xlink:href="#ArialMT-114"/>
       <use x="33.300781" xlink:href="#ArialMT-52"/>
       <use x="88.916016" xlink:href="#ArialMT-52"/>
      </g>
     </g>
    </g>
    <g id="xtick_3">
     <g id="line2d_3">
      <g>
       <use style="fill:#262626;stroke:#262626;stroke-width:1.875;" x="95.85" xlink:href="#m5571a35c5a" y="252"/>
      </g>
     </g>
     <g id="text_3">
      <!-- r19 -->
      <g style="fill:#262626;" transform="translate(100.115508 288.345078)rotate(-90)scale(0.165 -0.165)">
       <defs>
        <path d="M 37.25 0 
L 28.46875 0 
L 28.46875 56 
Q 25.296875 52.984375 20.140625 49.953125 
Q 14.984375 46.921875 10.890625 45.40625 
L 10.890625 53.90625 
Q 18.265625 57.375 23.78125 62.296875 
Q 29.296875 67.234375 31.59375 71.875 
L 37.25 71.875 
z
" id="ArialMT-49"/>
        <path d="M 5.46875 16.546875 
L 13.921875 17.328125 
Q 14.984375 11.375 18.015625 8.6875 
Q 21.046875 6 25.78125 6 
Q 29.828125 6 32.875 7.859375 
Q 35.9375 9.71875 37.890625 12.8125 
Q 39.84375 15.921875 41.15625 21.1875 
Q 42.484375 26.46875 42.484375 31.9375 
Q 42.484375 32.515625 42.4375 33.6875 
Q 39.796875 29.5 35.234375 26.875 
Q 30.671875 24.265625 25.34375 24.265625 
Q 16.453125 24.265625 10.296875 30.703125 
Q 4.15625 37.15625 4.15625 47.703125 
Q 4.15625 58.59375 10.578125 65.234375 
Q 17 71.875 26.65625 71.875 
Q 33.640625 71.875 39.421875 68.109375 
Q 45.21875 64.359375 48.21875 57.390625 
Q 51.21875 50.4375 51.21875 37.25 
Q 51.21875 23.53125 48.234375 15.40625 
Q 45.265625 7.28125 39.375 3.03125 
Q 33.5 -1.21875 25.59375 -1.21875 
Q 17.1875 -1.21875 11.859375 3.4375 
Q 6.546875 8.109375 5.46875 16.546875 
z
M 41.453125 48.140625 
Q 41.453125 55.71875 37.421875 60.15625 
Q 33.40625 64.59375 27.734375 64.59375 
Q 21.875 64.59375 17.53125 59.8125 
Q 13.1875 55.03125 13.1875 47.40625 
Q 13.1875 40.578125 17.3125 36.296875 
Q 21.4375 32.03125 27.484375 32.03125 
Q 33.59375 32.03125 37.515625 36.296875 
Q 41.453125 40.578125 41.453125 48.140625 
z
" id="ArialMT-57"/>
       </defs>
       <use xlink:href="#ArialMT-114"/>
       <use x="33.300781" xlink:href="#ArialMT-49"/>
       <use x="88.916016" xlink:href="#ArialMT-57"/>
      </g>
     </g>
    </g>
    <g id="xtick_4">
     <g id="line2d_4">
      <g>
       <use style="fill:#262626;stroke:#262626;stroke-width:1.875;" x="112.59" xlink:href="#m5571a35c5a" y="252"/>
      </g>
     </g>
     <g id="text_4">
      <!-- r1273 -->
      <g style="fill:#262626;" transform="translate(116.855508 306.696172)rotate(-90)scale(0.165 -0.165)">
       <defs>
        <path d="M 50.34375 8.453125 
L 50.34375 0 
L 3.03125 0 
Q 2.9375 3.171875 4.046875 6.109375 
Q 5.859375 10.9375 9.828125 15.625 
Q 13.8125 20.3125 21.34375 26.46875 
Q 33.015625 36.03125 37.109375 41.625 
Q 41.21875 47.21875 41.21875 52.203125 
Q 41.21875 57.421875 37.46875 61 
Q 33.734375 64.59375 27.734375 64.59375 
Q 21.390625 64.59375 17.578125 60.78125 
Q 13.765625 56.984375 13.71875 50.25 
L 4.6875 51.171875 
Q 5.609375 61.28125 11.65625 66.578125 
Q 17.71875 71.875 27.9375 71.875 
Q 38.234375 71.875 44.234375 66.15625 
Q 50.25 60.453125 50.25 52 
Q 50.25 47.703125 48.484375 43.546875 
Q 46.734375 39.40625 42.65625 34.8125 
Q 38.578125 30.21875 29.109375 22.21875 
Q 21.1875 15.578125 18.9375 13.203125 
Q 16.703125 10.84375 15.234375 8.453125 
z
" id="ArialMT-50"/>
        <path d="M 4.734375 62.203125 
L 4.734375 70.65625 
L 51.078125 70.65625 
L 51.078125 63.8125 
Q 44.234375 56.546875 37.515625 44.484375 
Q 30.8125 32.421875 27.15625 19.671875 
Q 24.515625 10.6875 23.78125 0 
L 14.75 0 
Q 14.890625 8.453125 18.0625 20.40625 
Q 21.234375 32.375 27.171875 43.484375 
Q 33.109375 54.59375 39.796875 62.203125 
z
" id="ArialMT-55"/>
        <path d="M 4.203125 18.890625 
L 12.984375 20.0625 
Q 14.5 12.59375 18.140625 9.296875 
Q 21.78125 6 27 6 
Q 33.203125 6 37.46875 10.296875 
Q 41.75 14.59375 41.75 20.953125 
Q 41.75 27 37.796875 30.921875 
Q 33.84375 34.859375 27.734375 34.859375 
Q 25.25 34.859375 21.53125 33.890625 
L 22.515625 41.609375 
Q 23.390625 41.5 23.921875 41.5 
Q 29.546875 41.5 34.03125 44.421875 
Q 38.53125 47.359375 38.53125 53.46875 
Q 38.53125 58.296875 35.25 61.46875 
Q 31.984375 64.65625 26.8125 64.65625 
Q 21.6875 64.65625 18.265625 61.421875 
Q 14.84375 58.203125 13.875 51.765625 
L 5.078125 53.328125 
Q 6.6875 62.15625 12.390625 67.015625 
Q 18.109375 71.875 26.609375 71.875 
Q 32.46875 71.875 37.390625 69.359375 
Q 42.328125 66.84375 44.9375 62.5 
Q 47.5625 58.15625 47.5625 53.265625 
Q 47.5625 48.640625 45.0625 44.828125 
Q 42.578125 41.015625 37.703125 38.765625 
Q 44.046875 37.3125 47.5625 32.6875 
Q 51.078125 28.078125 51.078125 21.140625 
Q 51.078125 11.765625 44.234375 5.25 
Q 37.40625 -1.265625 26.953125 -1.265625 
Q 17.53125 -1.265625 11.296875 4.34375 
Q 5.078125 9.96875 4.203125 18.890625 
z
" id="ArialMT-51"/>
       </defs>
       <use xlink:href="#ArialMT-114"/>
       <use x="33.300781" xlink:href="#ArialMT-49"/>
       <use x="88.916016" xlink:href="#ArialMT-50"/>
       <use x="144.53125" xlink:href="#ArialMT-55"/>
       <use x="200.146484" xlink:href="#ArialMT-51"/>
      </g>
     </g>
    </g>
    <g id="xtick_5">
     <g id="line2d_5">
      <g>
       <use style="fill:#262626;stroke:#262626;stroke-width:1.875;" x="129.33" xlink:href="#m5571a35c5a" y="252"/>
      </g>
     </g>
     <g id="text_5">
      <!-- r27 -->
      <g style="fill:#262626;" transform="translate(133.595508 288.345078)rotate(-90)scale(0.165 -0.165)">
       <use xlink:href="#ArialMT-114"/>
       <use x="33.300781" xlink:href="#ArialMT-50"/>
       <use x="88.916016" xlink:href="#ArialMT-55"/>
      </g>
     </g>
    </g>
    <g id="xtick_6">
     <g id="line2d_6">
      <g>
       <use style="fill:#262626;stroke:#262626;stroke-width:1.875;" x="146.07" xlink:href="#m5571a35c5a" y="252"/>
      </g>
     </g>
     <g id="text_6">
      <!-- r7 -->
      <g style="fill:#262626;" transform="translate(150.335508 279.169531)rotate(-90)scale(0.165 -0.165)">
       <use xlink:href="#ArialMT-114"/>
       <use x="33.300781" xlink:href="#ArialMT-55"/>
      </g>
     </g>
    </g>
    <g id="xtick_7">
     <g id="line2d_7">
      <g>
       <use style="fill:#262626;stroke:#262626;stroke-width:1.875;" x="162.81" xlink:href="#m5571a35c5a" y="252"/>
      </g>
     </g>
     <g id="text_7">
      <!-- BOUNDARY_SMPYRKe -->
      <g style="fill:#262626;" transform="translate(167.181211 445.762812)rotate(-90)scale(0.165 -0.165)">
       <defs>
        <path d="M 7.328125 0 
L 7.328125 71.578125 
L 34.1875 71.578125 
Q 42.390625 71.578125 47.34375 69.40625 
Q 52.296875 67.234375 55.09375 62.71875 
Q 57.90625 58.203125 57.90625 53.265625 
Q 57.90625 48.6875 55.421875 44.625 
Q 52.9375 40.578125 47.90625 38.09375 
Q 54.390625 36.1875 57.875 31.59375 
Q 61.375 27 61.375 20.75 
Q 61.375 15.71875 59.25 11.390625 
Q 57.125 7.078125 54 4.734375 
Q 50.875 2.390625 46.15625 1.1875 
Q 41.453125 0 34.625 0 
z
M 16.796875 41.5 
L 32.28125 41.5 
Q 38.578125 41.5 41.3125 42.328125 
Q 44.921875 43.40625 46.75 45.890625 
Q 48.578125 48.390625 48.578125 52.15625 
Q 48.578125 55.71875 46.875 58.421875 
Q 45.171875 61.140625 41.984375 62.140625 
Q 38.8125 63.140625 31.109375 63.140625 
L 16.796875 63.140625 
z
M 16.796875 8.453125 
L 34.625 8.453125 
Q 39.203125 8.453125 41.0625 8.796875 
Q 44.34375 9.375 46.53125 10.734375 
Q 48.734375 12.109375 50.140625 14.71875 
Q 51.5625 17.328125 51.5625 20.75 
Q 51.5625 24.75 49.515625 27.703125 
Q 47.46875 30.671875 43.828125 31.859375 
Q 40.1875 33.0625 33.34375 33.0625 
L 16.796875 33.0625 
z
" id="ArialMT-66"/>
        <path d="M 4.828125 34.859375 
Q 4.828125 52.6875 14.390625 62.765625 
Q 23.96875 72.859375 39.109375 72.859375 
Q 49.03125 72.859375 56.984375 68.109375 
Q 64.9375 63.375 69.109375 54.90625 
Q 73.296875 46.4375 73.296875 35.6875 
Q 73.296875 24.8125 68.890625 16.21875 
Q 64.5 7.625 56.4375 3.203125 
Q 48.390625 -1.21875 39.0625 -1.21875 
Q 28.953125 -1.21875 20.984375 3.65625 
Q 13.03125 8.546875 8.921875 16.984375 
Q 4.828125 25.4375 4.828125 34.859375 
z
M 14.59375 34.71875 
Q 14.59375 21.78125 21.546875 14.328125 
Q 28.515625 6.890625 39.015625 6.890625 
Q 49.703125 6.890625 56.609375 14.40625 
Q 63.53125 21.921875 63.53125 35.75 
Q 63.53125 44.484375 60.578125 51 
Q 57.625 57.515625 51.921875 61.109375 
Q 46.234375 64.703125 39.15625 64.703125 
Q 29.109375 64.703125 21.84375 57.78125 
Q 14.59375 50.875 14.59375 34.71875 
z
" id="ArialMT-79"/>
        <path d="M 54.6875 71.578125 
L 64.15625 71.578125 
L 64.15625 30.21875 
Q 64.15625 19.4375 61.71875 13.078125 
Q 59.28125 6.734375 52.90625 2.75 
Q 46.53125 -1.21875 36.1875 -1.21875 
Q 26.125 -1.21875 19.71875 2.25 
Q 13.328125 5.71875 10.59375 12.28125 
Q 7.859375 18.84375 7.859375 30.21875 
L 7.859375 71.578125 
L 17.328125 71.578125 
L 17.328125 30.28125 
Q 17.328125 20.953125 19.0625 16.53125 
Q 20.796875 12.109375 25.015625 9.71875 
Q 29.25 7.328125 35.359375 7.328125 
Q 45.796875 7.328125 50.234375 12.0625 
Q 54.6875 16.796875 54.6875 30.28125 
z
" id="ArialMT-85"/>
        <path d="M 7.625 0 
L 7.625 71.578125 
L 17.328125 71.578125 
L 54.9375 15.375 
L 54.9375 71.578125 
L 64.015625 71.578125 
L 64.015625 0 
L 54.296875 0 
L 16.703125 56.25 
L 16.703125 0 
z
" id="ArialMT-78"/>
        <path d="M 7.859375 0 
L 7.859375 71.578125 
L 39.59375 71.578125 
Q 49.171875 71.578125 54.140625 69.640625 
Q 59.125 67.71875 62.109375 62.828125 
Q 65.09375 57.953125 65.09375 52.046875 
Q 65.09375 44.4375 60.15625 39.203125 
Q 55.21875 33.984375 44.921875 32.5625 
Q 48.6875 30.765625 50.640625 29 
Q 54.78125 25.203125 58.5 19.484375 
L 70.953125 0 
L 59.03125 0 
L 49.5625 14.890625 
Q 45.40625 21.34375 42.71875 24.75 
Q 40.046875 28.171875 37.921875 29.53125 
Q 35.796875 30.90625 33.59375 31.453125 
Q 31.984375 31.78125 28.328125 31.78125 
L 17.328125 31.78125 
L 17.328125 0 
z
M 17.328125 39.984375 
L 37.703125 39.984375 
Q 44.1875 39.984375 47.84375 41.328125 
Q 51.515625 42.671875 53.421875 45.625 
Q 55.328125 48.578125 55.328125 52.046875 
Q 55.328125 57.125 51.640625 60.390625 
Q 47.953125 63.671875 39.984375 63.671875 
L 17.328125 63.671875 
z
" id="ArialMT-82"/>
        <path d="M 27.875 0 
L 27.875 30.328125 
L 0.296875 71.578125 
L 11.8125 71.578125 
L 25.921875 50 
Q 29.828125 43.953125 33.203125 37.890625 
Q 36.421875 43.5 41.015625 50.53125 
L 54.890625 71.578125 
L 65.921875 71.578125 
L 37.359375 30.328125 
L 37.359375 0 
z
" id="ArialMT-89"/>
        <path d="M -1.515625 -19.875 
L -1.515625 -13.53125 
L 56.734375 -13.53125 
L 56.734375 -19.875 
z
" id="ArialMT-95"/>
        <path d="M 4.5 23 
L 13.421875 23.78125 
Q 14.0625 18.40625 16.375 14.96875 
Q 18.703125 11.53125 23.578125 9.40625 
Q 28.46875 7.28125 34.578125 7.28125 
Q 39.984375 7.28125 44.140625 8.890625 
Q 48.296875 10.5 50.3125 13.296875 
Q 52.34375 16.109375 52.34375 19.4375 
Q 52.34375 22.796875 50.390625 25.3125 
Q 48.4375 27.828125 43.953125 29.546875 
Q 41.0625 30.671875 31.203125 33.03125 
Q 21.34375 35.40625 17.390625 37.5 
Q 12.25 40.1875 9.734375 44.15625 
Q 7.234375 48.140625 7.234375 53.078125 
Q 7.234375 58.5 10.296875 63.203125 
Q 13.375 67.921875 19.28125 70.359375 
Q 25.203125 72.796875 32.421875 72.796875 
Q 40.375 72.796875 46.453125 70.234375 
Q 52.546875 67.671875 55.8125 62.6875 
Q 59.078125 57.71875 59.328125 51.421875 
L 50.25 50.734375 
Q 49.515625 57.515625 45.28125 60.984375 
Q 41.0625 64.453125 32.8125 64.453125 
Q 24.21875 64.453125 20.28125 61.296875 
Q 16.359375 58.15625 16.359375 53.71875 
Q 16.359375 49.859375 19.140625 47.359375 
Q 21.875 44.875 33.421875 42.265625 
Q 44.96875 39.65625 49.265625 37.703125 
Q 55.515625 34.8125 58.484375 30.390625 
Q 61.46875 25.984375 61.46875 20.21875 
Q 61.46875 14.5 58.203125 9.4375 
Q 54.9375 4.390625 48.796875 1.578125 
Q 42.671875 -1.21875 35.015625 -1.21875 
Q 25.296875 -1.21875 18.71875 1.609375 
Q 12.15625 4.4375 8.421875 10.125 
Q 4.6875 15.828125 4.5 23 
z
" id="ArialMT-83"/>
        <path d="M 7.421875 0 
L 7.421875 71.578125 
L 21.6875 71.578125 
L 38.625 20.90625 
Q 40.96875 13.8125 42.046875 10.296875 
Q 43.265625 14.203125 45.84375 21.78125 
L 62.984375 71.578125 
L 75.734375 71.578125 
L 75.734375 0 
L 66.609375 0 
L 66.609375 59.90625 
L 45.796875 0 
L 37.25 0 
L 16.546875 60.9375 
L 16.546875 0 
z
" id="ArialMT-77"/>
        <path d="M 7.71875 0 
L 7.71875 71.578125 
L 34.71875 71.578125 
Q 41.84375 71.578125 45.609375 70.90625 
Q 50.875 70.015625 54.4375 67.546875 
Q 58.015625 65.09375 60.1875 60.640625 
Q 62.359375 56.203125 62.359375 50.875 
Q 62.359375 41.75 56.546875 35.421875 
Q 50.734375 29.109375 35.546875 29.109375 
L 17.1875 29.109375 
L 17.1875 0 
z
M 17.1875 37.546875 
L 35.6875 37.546875 
Q 44.875 37.546875 48.734375 40.96875 
Q 52.59375 44.390625 52.59375 50.59375 
Q 52.59375 55.078125 50.3125 58.265625 
Q 48.046875 61.46875 44.34375 62.5 
Q 41.9375 63.140625 35.5 63.140625 
L 17.1875 63.140625 
z
" id="ArialMT-80"/>
        <path d="M 7.328125 0 
L 7.328125 71.578125 
L 16.796875 71.578125 
L 16.796875 36.078125 
L 52.34375 71.578125 
L 65.1875 71.578125 
L 35.15625 42.578125 
L 66.5 0 
L 54 0 
L 28.515625 36.234375 
L 16.796875 24.8125 
L 16.796875 0 
z
" id="ArialMT-75"/>
        <path d="M 42.09375 16.703125 
L 51.171875 15.578125 
Q 49.03125 7.625 43.21875 3.21875 
Q 37.40625 -1.171875 28.375 -1.171875 
Q 17 -1.171875 10.328125 5.828125 
Q 3.65625 12.84375 3.65625 25.484375 
Q 3.65625 38.578125 10.390625 45.796875 
Q 17.140625 53.03125 27.875 53.03125 
Q 38.28125 53.03125 44.875 45.953125 
Q 51.46875 38.875 51.46875 26.03125 
Q 51.46875 25.25 51.421875 23.6875 
L 12.75 23.6875 
Q 13.234375 15.140625 17.578125 10.59375 
Q 21.921875 6.0625 28.421875 6.0625 
Q 33.25 6.0625 36.671875 8.59375 
Q 40.09375 11.140625 42.09375 16.703125 
z
M 13.234375 30.90625 
L 42.1875 30.90625 
Q 41.609375 37.453125 38.875 40.71875 
Q 34.671875 45.796875 27.984375 45.796875 
Q 21.921875 45.796875 17.796875 41.75 
Q 13.671875 37.703125 13.234375 30.90625 
z
" id="ArialMT-101"/>
       </defs>
       <use xlink:href="#ArialMT-66"/>
       <use x="66.699219" xlink:href="#ArialMT-79"/>
       <use x="144.482422" xlink:href="#ArialMT-85"/>
       <use x="216.699219" xlink:href="#ArialMT-78"/>
       <use x="288.916016" xlink:href="#ArialMT-68"/>
       <use x="361.132812" xlink:href="#ArialMT-65"/>
       <use x="427.832031" xlink:href="#ArialMT-82"/>
       <use x="498.298828" xlink:href="#ArialMT-89"/>
       <use x="564.998047" xlink:href="#ArialMT-95"/>
       <use x="620.613281" xlink:href="#ArialMT-83"/>
       <use x="687.3125" xlink:href="#ArialMT-77"/>
       <use x="770.613281" xlink:href="#ArialMT-80"/>
       <use x="837.3125" xlink:href="#ArialMT-89"/>
       <use x="904.011719" xlink:href="#ArialMT-82"/>
       <use x="976.228516" xlink:href="#ArialMT-75"/>
       <use x="1042.927734" xlink:href="#ArialMT-101"/>
      </g>
     </g>
    </g>
    <g id="xtick_8">
     <g id="line2d_8">
      <g>
       <use style="fill:#262626;stroke:#262626;stroke-width:1.875;" x="179.55" xlink:href="#m5571a35c5a" y="252"/>
      </g>
     </g>
     <g id="text_8">
      <!-- r10 -->
      <g style="fill:#262626;" transform="translate(183.815508 288.345078)rotate(-90)scale(0.165 -0.165)">
       <defs>
        <path d="M 4.15625 35.296875 
Q 4.15625 48 6.765625 55.734375 
Q 9.375 63.484375 14.515625 67.671875 
Q 19.671875 71.875 27.484375 71.875 
Q 33.25 71.875 37.59375 69.546875 
Q 41.9375 67.234375 44.765625 62.859375 
Q 47.609375 58.5 49.21875 52.21875 
Q 50.828125 45.953125 50.828125 35.296875 
Q 50.828125 22.703125 48.234375 14.96875 
Q 45.65625 7.234375 40.5 3 
Q 35.359375 -1.21875 27.484375 -1.21875 
Q 17.140625 -1.21875 11.234375 6.203125 
Q 4.15625 15.140625 4.15625 35.296875 
z
M 13.1875 35.296875 
Q 13.1875 17.671875 17.3125 11.828125 
Q 21.4375 6 27.484375 6 
Q 33.546875 6 37.671875 11.859375 
Q 41.796875 17.71875 41.796875 35.296875 
Q 41.796875 52.984375 37.671875 58.78125 
Q 33.546875 64.59375 27.390625 64.59375 
Q 21.34375 64.59375 17.71875 59.46875 
Q 13.1875 52.9375 13.1875 35.296875 
z
" id="ArialMT-48"/>
       </defs>
       <use xlink:href="#ArialMT-114"/>
       <use x="33.300781" xlink:href="#ArialMT-49"/>
       <use x="88.916016" xlink:href="#ArialMT-48"/>
      </g>
     </g>
    </g>
    <g id="xtick_9">
     <g id="line2d_9">
      <g>
       <use style="fill:#262626;stroke:#262626;stroke-width:1.875;" x="196.29" xlink:href="#m5571a35c5a" y="252"/>
      </g>
     </g>
     <g id="text_9">
      <!-- r2655 -->
      <g style="fill:#262626;" transform="translate(200.555508 306.696172)rotate(-90)scale(0.165 -0.165)">
       <defs>
        <path d="M 4.15625 18.75 
L 13.375 19.53125 
Q 14.40625 12.796875 18.140625 9.390625 
Q 21.875 6 27.15625 6 
Q 33.5 6 37.890625 10.78125 
Q 42.28125 15.578125 42.28125 23.484375 
Q 42.28125 31 38.0625 35.34375 
Q 33.84375 39.703125 27 39.703125 
Q 22.75 39.703125 19.328125 37.765625 
Q 15.921875 35.84375 13.96875 32.765625 
L 5.71875 33.84375 
L 12.640625 70.609375 
L 48.25 70.609375 
L 48.25 62.203125 
L 19.671875 62.203125 
L 15.828125 42.96875 
Q 22.265625 47.46875 29.34375 47.46875 
Q 38.71875 47.46875 45.15625 40.96875 
Q 51.609375 34.46875 51.609375 24.265625 
Q 51.609375 14.546875 45.953125 7.46875 
Q 39.0625 -1.21875 27.15625 -1.21875 
Q 17.390625 -1.21875 11.203125 4.25 
Q 5.03125 9.71875 4.15625 18.75 
z
" id="ArialMT-53"/>
       </defs>
       <use xlink:href="#ArialMT-114"/>
       <use x="33.300781" xlink:href="#ArialMT-50"/>
       <use x="88.916016" xlink:href="#ArialMT-54"/>
       <use x="144.53125" xlink:href="#ArialMT-53"/>
       <use x="200.146484" xlink:href="#ArialMT-53"/>
      </g>
     </g>
    </g>
    <g id="xtick_10">
     <g id="line2d_10">
      <g>
       <use style="fill:#262626;stroke:#262626;stroke-width:1.875;" x="213.03" xlink:href="#m5571a35c5a" y="252"/>
      </g>
     </g>
     <g id="text_10">
      <!-- BOUNDARY_ACe -->
      <g style="fill:#262626;" transform="translate(217.401211 399.000781)rotate(-90)scale(0.165 -0.165)">
       <defs>
        <path d="M 58.796875 25.09375 
L 68.265625 22.703125 
Q 65.28125 11.03125 57.546875 4.90625 
Q 49.8125 -1.21875 38.625 -1.21875 
Q 27.046875 -1.21875 19.796875 3.484375 
Q 12.546875 8.203125 8.765625 17.140625 
Q 4.984375 26.078125 4.984375 36.328125 
Q 4.984375 47.515625 9.25 55.828125 
Q 13.53125 64.15625 21.40625 68.46875 
Q 29.296875 72.796875 38.765625 72.796875 
Q 49.515625 72.796875 56.828125 67.328125 
Q 64.15625 61.859375 67.046875 51.953125 
L 57.71875 49.75 
Q 55.21875 57.5625 50.484375 61.125 
Q 45.75 64.703125 38.578125 64.703125 
Q 30.328125 64.703125 24.78125 60.734375 
Q 19.234375 56.78125 16.984375 50.109375 
Q 14.75 43.453125 14.75 36.375 
Q 14.75 27.25 17.40625 20.4375 
Q 20.0625 13.625 25.671875 10.25 
Q 31.296875 6.890625 37.84375 6.890625 
Q 45.796875 6.890625 51.3125 11.46875 
Q 56.84375 16.0625 58.796875 25.09375 
z
" id="ArialMT-67"/>
       </defs>
       <use xlink:href="#ArialMT-66"/>
       <use x="66.699219" xlink:href="#ArialMT-79"/>
       <use x="144.482422" xlink:href="#ArialMT-85"/>
       <use x="216.699219" xlink:href="#ArialMT-78"/>
       <use x="288.916016" xlink:href="#ArialMT-68"/>
       <use x="361.132812" xlink:href="#ArialMT-65"/>
       <use x="427.832031" xlink:href="#ArialMT-82"/>
       <use x="498.298828" xlink:href="#ArialMT-89"/>
       <use x="564.998047" xlink:href="#ArialMT-95"/>
       <use x="620.613281" xlink:href="#ArialMT-65"/>
       <use x="687.3125" xlink:href="#ArialMT-67"/>
       <use x="759.529297" xlink:href="#ArialMT-101"/>
      </g>
     </g>
    </g>
    <g id="xtick_11">
     <g id="line2d_11">
      <g>
       <use style="fill:#262626;stroke:#262626;stroke-width:1.875;" x="229.77" xlink:href="#m5571a35c5a" y="252"/>
      </g>
     </g>
     <g id="text_11">
      <!-- r1942 -->
      <g style="fill:#262626;" transform="translate(234.035508 306.696172)rotate(-90)scale(0.165 -0.165)">
       <use xlink:href="#ArialMT-114"/>
       <use x="33.300781" xlink:href="#ArialMT-49"/>
       <use x="88.916016" xlink:href="#ArialMT-57"/>
       <use x="144.53125" xlink:href="#ArialMT-52"/>
       <use x="200.146484" xlink:href="#ArialMT-50"/>
      </g>
     </g>
    </g>
    <g id="xtick_12">
     <g id="line2d_12">
      <g>
       <use style="fill:#262626;stroke:#262626;stroke-width:1.875;" x="246.51" xlink:href="#m5571a35c5a" y="252"/>
      </g>
     </g>
     <g id="text_12">
      <!-- 3HPPt -->
      <g style="fill:#262626;" transform="translate(250.775508 312.187578)rotate(-90)scale(0.165 -0.165)">
       <defs>
        <path d="M 8.015625 0 
L 8.015625 71.578125 
L 17.484375 71.578125 
L 17.484375 42.1875 
L 54.6875 42.1875 
L 54.6875 71.578125 
L 64.15625 71.578125 
L 64.15625 0 
L 54.6875 0 
L 54.6875 33.734375 
L 17.484375 33.734375 
L 17.484375 0 
z
" id="ArialMT-72"/>
        <path d="M 25.78125 7.859375 
L 27.046875 0.09375 
Q 23.34375 -0.6875 20.40625 -0.6875 
Q 15.625 -0.6875 12.984375 0.828125 
Q 10.359375 2.34375 9.28125 4.8125 
Q 8.203125 7.28125 8.203125 15.1875 
L 8.203125 45.015625 
L 1.765625 45.015625 
L 1.765625 51.859375 
L 8.203125 51.859375 
L 8.203125 64.703125 
L 16.9375 69.96875 
L 16.9375 51.859375 
L 25.78125 51.859375 
L 25.78125 45.015625 
L 16.9375 45.015625 
L 16.9375 14.703125 
Q 16.9375 10.9375 17.40625 9.859375 
Q 17.875 8.796875 18.921875 8.15625 
Q 19.96875 7.515625 21.921875 7.515625 
Q 23.390625 7.515625 25.78125 7.859375 
z
" id="ArialMT-116"/>
       </defs>
       <use xlink:href="#ArialMT-51"/>
       <use x="55.615234" xlink:href="#ArialMT-72"/>
       <use x="127.832031" xlink:href="#ArialMT-80"/>
       <use x="194.53125" xlink:href="#ArialMT-80"/>
       <use x="261.230469" xlink:href="#ArialMT-116"/>
      </g>
     </g>
    </g>
    <g id="xtick_13">
     <g id="line2d_13">
      <g>
       <use style="fill:#262626;stroke:#262626;stroke-width:1.875;" x="263.25" xlink:href="#m5571a35c5a" y="252"/>
      </g>
     </g>
     <g id="text_13">
      <!-- r8 -->
      <g style="fill:#262626;" transform="translate(267.515508 279.169531)rotate(-90)scale(0.165 -0.165)">
       <defs>
        <path d="M 17.671875 38.8125 
Q 12.203125 40.828125 9.5625 44.53125 
Q 6.9375 48.25 6.9375 53.421875 
Q 6.9375 61.234375 12.546875 66.546875 
Q 18.171875 71.875 27.484375 71.875 
Q 36.859375 71.875 42.578125 66.421875 
Q 48.296875 60.984375 48.296875 53.171875 
Q 48.296875 48.1875 45.671875 44.5 
Q 43.0625 40.828125 37.75 38.8125 
Q 44.34375 36.671875 47.78125 31.875 
Q 51.21875 27.09375 51.21875 20.453125 
Q 51.21875 11.28125 44.71875 5.03125 
Q 38.234375 -1.21875 27.640625 -1.21875 
Q 17.046875 -1.21875 10.546875 5.046875 
Q 4.046875 11.328125 4.046875 20.703125 
Q 4.046875 27.6875 7.59375 32.390625 
Q 11.140625 37.109375 17.671875 38.8125 
z
M 15.921875 53.71875 
Q 15.921875 48.640625 19.1875 45.40625 
Q 22.46875 42.1875 27.6875 42.1875 
Q 32.765625 42.1875 36.015625 45.375 
Q 39.265625 48.578125 39.265625 53.21875 
Q 39.265625 58.0625 35.90625 61.359375 
Q 32.5625 64.65625 27.59375 64.65625 
Q 22.5625 64.65625 19.234375 61.421875 
Q 15.921875 58.203125 15.921875 53.71875 
z
M 13.09375 20.65625 
Q 13.09375 16.890625 14.875 13.375 
Q 16.65625 9.859375 20.171875 7.921875 
Q 23.6875 6 27.734375 6 
Q 34.03125 6 38.125 10.046875 
Q 42.234375 14.109375 42.234375 20.359375 
Q 42.234375 26.703125 38.015625 30.859375 
Q 33.796875 35.015625 27.4375 35.015625 
Q 21.234375 35.015625 17.15625 30.90625 
Q 13.09375 26.8125 13.09375 20.65625 
z
" id="ArialMT-56"/>
       </defs>
       <use xlink:href="#ArialMT-114"/>
       <use x="33.300781" xlink:href="#ArialMT-56"/>
      </g>
     </g>
    </g>
    <g id="xtick_14">
     <g id="line2d_14">
      <g>
       <use style="fill:#262626;stroke:#262626;stroke-width:1.875;" x="279.99" xlink:href="#m5571a35c5a" y="252"/>
      </g>
     </g>
     <g id="text_14">
      <!-- r12a -->
      <g style="fill:#262626;" transform="translate(284.255508 297.520625)rotate(-90)scale(0.165 -0.165)">
       <defs>
        <path d="M 40.4375 6.390625 
Q 35.546875 2.25 31.03125 0.53125 
Q 26.515625 -1.171875 21.34375 -1.171875 
Q 12.796875 -1.171875 8.203125 3 
Q 3.609375 7.171875 3.609375 13.671875 
Q 3.609375 17.484375 5.34375 20.625 
Q 7.078125 23.78125 9.890625 25.6875 
Q 12.703125 27.59375 16.21875 28.5625 
Q 18.796875 29.25 24.03125 29.890625 
Q 34.671875 31.15625 39.703125 32.90625 
Q 39.75 34.71875 39.75 35.203125 
Q 39.75 40.578125 37.25 42.78125 
Q 33.890625 45.75 27.25 45.75 
Q 21.046875 45.75 18.09375 43.578125 
Q 15.140625 41.40625 13.71875 35.890625 
L 5.125 37.0625 
Q 6.296875 42.578125 8.984375 45.96875 
Q 11.671875 49.359375 16.75 51.1875 
Q 21.828125 53.03125 28.515625 53.03125 
Q 35.15625 53.03125 39.296875 51.46875 
Q 43.453125 49.90625 45.40625 47.53125 
Q 47.359375 45.171875 48.140625 41.546875 
Q 48.578125 39.3125 48.578125 33.453125 
L 48.578125 21.734375 
Q 48.578125 9.46875 49.140625 6.21875 
Q 49.703125 2.984375 51.375 0 
L 42.1875 0 
Q 40.828125 2.734375 40.4375 6.390625 
z
M 39.703125 26.03125 
Q 34.90625 24.078125 25.34375 22.703125 
Q 19.921875 21.921875 17.671875 20.9375 
Q 15.4375 19.96875 14.203125 18.09375 
Q 12.984375 16.21875 12.984375 13.921875 
Q 12.984375 10.40625 15.640625 8.0625 
Q 18.3125 5.71875 23.4375 5.71875 
Q 28.515625 5.71875 32.46875 7.9375 
Q 36.421875 10.15625 38.28125 14.015625 
Q 39.703125 17 39.703125 22.796875 
z
" id="ArialMT-97"/>
       </defs>
       <use xlink:href="#ArialMT-114"/>
       <use x="33.300781" xlink:href="#ArialMT-49"/>
       <use x="88.916016" xlink:href="#ArialMT-50"/>
       <use x="144.53125" xlink:href="#ArialMT-97"/>
      </g>
     </g>
    </g>
    <g id="xtick_15">
     <g id="line2d_15">
      <g>
       <use style="fill:#262626;stroke:#262626;stroke-width:1.875;" x="296.73" xlink:href="#m5571a35c5a" y="252"/>
      </g>
     </g>
     <g id="text_15">
      <!-- r15 -->
      <g style="fill:#262626;" transform="translate(300.995508 288.345078)rotate(-90)scale(0.165 -0.165)">
       <use xlink:href="#ArialMT-114"/>
       <use x="33.300781" xlink:href="#ArialMT-49"/>
       <use x="88.916016" xlink:href="#ArialMT-53"/>
      </g>
     </g>
    </g>
    <g id="xtick_16">
     <g id="line2d_16">
      <g>
       <use style="fill:#262626;stroke:#262626;stroke-width:1.875;" x="313.47" xlink:href="#m5571a35c5a" y="252"/>
      </g>
     </g>
     <g id="text_16">
      <!-- r5a -->
      <g style="fill:#262626;" transform="translate(317.735508 288.345078)rotate(-90)scale(0.165 -0.165)">
       <use xlink:href="#ArialMT-114"/>
       <use x="33.300781" xlink:href="#ArialMT-53"/>
       <use x="88.916016" xlink:href="#ArialMT-97"/>
      </g>
     </g>
    </g>
    <g id="xtick_17">
     <g id="line2d_17">
      <g>
       <use style="fill:#262626;stroke:#262626;stroke-width:1.875;" x="330.21" xlink:href="#m5571a35c5a" y="252"/>
      </g>
     </g>
     <g id="text_17">
      <!-- r1154 -->
      <g style="fill:#262626;" transform="translate(334.475508 305.479297)rotate(-90)scale(0.165 -0.165)">
       <use xlink:href="#ArialMT-114"/>
       <use x="33.300781" xlink:href="#ArialMT-49"/>
       <use x="81.541016" xlink:href="#ArialMT-49"/>
       <use x="137.15625" xlink:href="#ArialMT-53"/>
       <use x="192.771484" xlink:href="#ArialMT-52"/>
      </g>
     </g>
    </g>
    <g id="xtick_18">
     <g id="line2d_18">
      <g>
       <use style="fill:#262626;stroke:#262626;stroke-width:1.875;" x="346.95" xlink:href="#m5571a35c5a" y="252"/>
      </g>
     </g>
     <g id="text_18">
      <!-- r1934 -->
      <g style="fill:#262626;" transform="translate(351.215508 306.696172)rotate(-90)scale(0.165 -0.165)">
       <use xlink:href="#ArialMT-114"/>
       <use x="33.300781" xlink:href="#ArialMT-49"/>
       <use x="88.916016" xlink:href="#ArialMT-57"/>
       <use x="144.53125" xlink:href="#ArialMT-51"/>
       <use x="200.146484" xlink:href="#ArialMT-52"/>
      </g>
     </g>
    </g>
    <g id="xtick_19">
     <g id="line2d_19">
      <g>
       <use style="fill:#262626;stroke:#262626;stroke-width:1.875;" x="363.69" xlink:href="#m5571a35c5a" y="252"/>
      </g>
     </g>
     <g id="text_19">
      <!-- BAPAT -->
      <g style="fill:#262626;" transform="translate(367.955508 316.168203)rotate(-90)scale(0.165 -0.165)">
       <defs>
        <path d="M 25.921875 0 
L 25.921875 63.140625 
L 2.34375 63.140625 
L 2.34375 71.578125 
L 59.078125 71.578125 
L 59.078125 63.140625 
L 35.40625 63.140625 
L 35.40625 0 
z
" id="ArialMT-84"/>
       </defs>
       <use xlink:href="#ArialMT-66"/>
       <use x="66.699219" xlink:href="#ArialMT-65"/>
       <use x="133.398438" xlink:href="#ArialMT-80"/>
       <use x="192.722656" xlink:href="#ArialMT-65"/>
       <use x="252.046875" xlink:href="#ArialMT-84"/>
      </g>
     </g>
    </g>
    <g id="xtick_20">
     <g id="line2d_20">
      <g>
       <use style="fill:#262626;stroke:#262626;stroke-width:1.875;" x="380.43" xlink:href="#m5571a35c5a" y="252"/>
      </g>
     </g>
     <g id="text_20">
      <!-- r2143 -->
      <g style="fill:#262626;" transform="translate(384.695508 306.696172)rotate(-90)scale(0.165 -0.165)">
       <use xlink:href="#ArialMT-114"/>
       <use x="33.300781" xlink:href="#ArialMT-50"/>
       <use x="88.916016" xlink:href="#ArialMT-49"/>
       <use x="144.53125" xlink:href="#ArialMT-52"/>
       <use x="200.146484" xlink:href="#ArialMT-51"/>
      </g>
     </g>
    </g>
   </g>
   <g id="matplotlib.axis_2">
    <g id="ytick_1">
     <g id="line2d_21">
      <defs>
       <path d="M 0 0 
L -9 0 
" id="mb5b55d7f6b" style="stroke:#262626;stroke-width:1.875;"/>
      </defs>
      <g>
       <use style="fill:#262626;stroke:#262626;stroke-width:1.875;" x="54" xlink:href="#mb5b55d7f6b" y="208.649324"/>
      </g>
     </g>
     <g id="text_21">
      <!-- −0.4 -->
      <g style="fill:#262626;" transform="translate(8.927969 214.55452)scale(0.165 -0.165)">
       <defs>
        <path d="M 52.828125 31.203125 
L 5.5625 31.203125 
L 5.5625 39.40625 
L 52.828125 39.40625 
z
" id="ArialMT-8722"/>
        <path d="M 9.078125 0 
L 9.078125 10.015625 
L 19.09375 10.015625 
L 19.09375 0 
z
" id="ArialMT-46"/>
       </defs>
       <use xlink:href="#ArialMT-8722"/>
       <use x="58.398438" xlink:href="#ArialMT-48"/>
       <use x="114.013672" xlink:href="#ArialMT-46"/>
       <use x="141.796875" xlink:href="#ArialMT-52"/>
      </g>
     </g>
    </g>
    <g id="ytick_2">
     <g id="line2d_22">
      <g>
       <use style="fill:#262626;stroke:#262626;stroke-width:1.875;" x="54" xlink:href="#mb5b55d7f6b" y="163.538018"/>
      </g>
     </g>
     <g id="text_22">
      <!-- −0.2 -->
      <g style="fill:#262626;" transform="translate(8.927969 169.443214)scale(0.165 -0.165)">
       <use xlink:href="#ArialMT-8722"/>
       <use x="58.398438" xlink:href="#ArialMT-48"/>
       <use x="114.013672" xlink:href="#ArialMT-46"/>
       <use x="141.796875" xlink:href="#ArialMT-50"/>
      </g>
     </g>
    </g>
    <g id="ytick_3">
     <g id="line2d_23">
      <g>
       <use style="fill:#262626;stroke:#262626;stroke-width:1.875;" x="54" xlink:href="#mb5b55d7f6b" y="118.426712"/>
      </g>
     </g>
     <g id="text_23">
      <!-- 0.0 -->
      <g style="fill:#262626;" transform="translate(18.565 124.331907)scale(0.165 -0.165)">
       <use xlink:href="#ArialMT-48"/>
       <use x="55.615234" xlink:href="#ArialMT-46"/>
       <use x="83.398438" xlink:href="#ArialMT-48"/>
      </g>
     </g>
    </g>
    <g id="ytick_4">
     <g id="line2d_24">
      <g>
       <use style="fill:#262626;stroke:#262626;stroke-width:1.875;" x="54" xlink:href="#mb5b55d7f6b" y="73.315406"/>
      </g>
     </g>
     <g id="text_24">
      <!-- 0.2 -->
      <g style="fill:#262626;" transform="translate(18.565 79.220601)scale(0.165 -0.165)">
       <use xlink:href="#ArialMT-48"/>
       <use x="55.615234" xlink:href="#ArialMT-46"/>
       <use x="83.398438" xlink:href="#ArialMT-50"/>
      </g>
     </g>
    </g>
    <g id="text_25">
     <!-- FCC (3-hydroxypropionate) -->
     <g style="fill:#262626;" transform="translate(1.139531 252.313594)rotate(-90)scale(0.18 -0.18)">
      <defs>
       <path d="M 8.203125 0 
L 8.203125 71.578125 
L 56.5 71.578125 
L 56.5 63.140625 
L 17.671875 63.140625 
L 17.671875 40.96875 
L 51.265625 40.96875 
L 51.265625 32.515625 
L 17.671875 32.515625 
L 17.671875 0 
z
" id="ArialMT-70"/>
       <path id="ArialMT-32"/>
       <path d="M 23.390625 -21.046875 
Q 16.109375 -11.859375 11.078125 0.4375 
Q 6.0625 12.75 6.0625 25.921875 
Q 6.0625 37.546875 9.8125 48.1875 
Q 14.203125 60.546875 23.390625 72.796875 
L 29.6875 72.796875 
Q 23.78125 62.640625 21.875 58.296875 
Q 18.890625 51.5625 17.1875 44.234375 
Q 15.09375 35.109375 15.09375 25.875 
Q 15.09375 2.390625 29.6875 -21.046875 
z
" id="ArialMT-40"/>
       <path d="M 3.171875 21.484375 
L 3.171875 30.328125 
L 30.171875 30.328125 
L 30.171875 21.484375 
z
" id="ArialMT-45"/>
       <path d="M 6.59375 0 
L 6.59375 71.578125 
L 15.375 71.578125 
L 15.375 45.90625 
Q 21.53125 53.03125 30.90625 53.03125 
Q 36.671875 53.03125 40.921875 50.75 
Q 45.171875 48.484375 47 44.484375 
Q 48.828125 40.484375 48.828125 32.859375 
L 48.828125 0 
L 40.046875 0 
L 40.046875 32.859375 
Q 40.046875 39.453125 37.1875 42.453125 
Q 34.328125 45.453125 29.109375 45.453125 
Q 25.203125 45.453125 21.75 43.421875 
Q 18.3125 41.40625 16.84375 37.9375 
Q 15.375 34.46875 15.375 28.375 
L 15.375 0 
z
" id="ArialMT-104"/>
       <path d="M 6.203125 -19.96875 
L 5.21875 -11.71875 
Q 8.109375 -12.5 10.25 -12.5 
Q 13.1875 -12.5 14.9375 -11.515625 
Q 16.703125 -10.546875 17.828125 -8.796875 
Q 18.65625 -7.46875 20.515625 -2.25 
Q 20.75 -1.515625 21.296875 -0.09375 
L 1.609375 51.859375 
L 11.078125 51.859375 
L 21.875 21.828125 
Q 23.96875 16.109375 25.640625 9.8125 
Q 27.15625 15.875 29.25 21.625 
L 40.328125 51.859375 
L 49.125 51.859375 
L 29.390625 -0.875 
Q 26.21875 -9.421875 24.46875 -12.640625 
Q 22.125 -17 19.09375 -19.015625 
Q 16.0625 -21.046875 11.859375 -21.046875 
Q 9.328125 -21.046875 6.203125 -19.96875 
z
" id="ArialMT-121"/>
       <path d="M 40.234375 0 
L 40.234375 6.546875 
Q 35.296875 -1.171875 25.734375 -1.171875 
Q 19.53125 -1.171875 14.328125 2.25 
Q 9.125 5.671875 6.265625 11.796875 
Q 3.421875 17.921875 3.421875 25.875 
Q 3.421875 33.640625 6 39.96875 
Q 8.59375 46.296875 13.765625 49.65625 
Q 18.953125 53.03125 25.34375 53.03125 
Q 30.03125 53.03125 33.6875 51.046875 
Q 37.359375 49.078125 39.65625 45.90625 
L 39.65625 71.578125 
L 48.390625 71.578125 
L 48.390625 0 
z
M 12.453125 25.875 
Q 12.453125 15.921875 16.640625 10.984375 
Q 20.84375 6.0625 26.5625 6.0625 
Q 32.328125 6.0625 36.34375 10.765625 
Q 40.375 15.484375 40.375 25.140625 
Q 40.375 35.796875 36.265625 40.765625 
Q 32.171875 45.75 26.171875 45.75 
Q 20.3125 45.75 16.375 40.96875 
Q 12.453125 36.1875 12.453125 25.875 
z
" id="ArialMT-100"/>
       <path d="M 3.328125 25.921875 
Q 3.328125 40.328125 11.328125 47.265625 
Q 18.015625 53.03125 27.640625 53.03125 
Q 38.328125 53.03125 45.109375 46.015625 
Q 51.90625 39.015625 51.90625 26.65625 
Q 51.90625 16.65625 48.90625 10.90625 
Q 45.90625 5.171875 40.15625 2 
Q 34.421875 -1.171875 27.640625 -1.171875 
Q 16.75 -1.171875 10.03125 5.8125 
Q 3.328125 12.796875 3.328125 25.921875 
z
M 12.359375 25.921875 
Q 12.359375 15.96875 16.703125 11.015625 
Q 21.046875 6.0625 27.640625 6.0625 
Q 34.1875 6.0625 38.53125 11.03125 
Q 42.875 16.015625 42.875 26.21875 
Q 42.875 35.84375 38.5 40.796875 
Q 34.125 45.75 27.640625 45.75 
Q 21.046875 45.75 16.703125 40.8125 
Q 12.359375 35.890625 12.359375 25.921875 
z
" id="ArialMT-111"/>
       <path d="M 0.734375 0 
L 19.671875 26.953125 
L 2.15625 51.859375 
L 13.140625 51.859375 
L 21.09375 39.703125 
Q 23.34375 36.234375 24.703125 33.890625 
Q 26.859375 37.109375 28.65625 39.59375 
L 37.40625 51.859375 
L 47.90625 51.859375 
L 29.984375 27.4375 
L 49.265625 0 
L 38.484375 0 
L 27.828125 16.109375 
L 25 20.453125 
L 11.375 0 
z
" id="ArialMT-120"/>
       <path d="M 6.59375 -19.875 
L 6.59375 51.859375 
L 14.59375 51.859375 
L 14.59375 45.125 
Q 17.4375 49.078125 21 51.046875 
Q 24.5625 53.03125 29.640625 53.03125 
Q 36.28125 53.03125 41.359375 49.609375 
Q 46.4375 46.1875 49.015625 39.953125 
Q 51.609375 33.734375 51.609375 26.3125 
Q 51.609375 18.359375 48.75 11.984375 
Q 45.90625 5.609375 40.453125 2.21875 
Q 35.015625 -1.171875 29 -1.171875 
Q 24.609375 -1.171875 21.109375 0.6875 
Q 17.625 2.546875 15.375 5.375 
L 15.375 -19.875 
z
M 14.546875 25.640625 
Q 14.546875 15.625 18.59375 10.84375 
Q 22.65625 6.0625 28.421875 6.0625 
Q 34.28125 6.0625 38.453125 11.015625 
Q 42.625 15.96875 42.625 26.375 
Q 42.625 36.28125 38.546875 41.203125 
Q 34.46875 46.140625 28.8125 46.140625 
Q 23.1875 46.140625 18.859375 40.890625 
Q 14.546875 35.640625 14.546875 25.640625 
z
" id="ArialMT-112"/>
       <path d="M 6.640625 61.46875 
L 6.640625 71.578125 
L 15.4375 71.578125 
L 15.4375 61.46875 
z
M 6.640625 0 
L 6.640625 51.859375 
L 15.4375 51.859375 
L 15.4375 0 
z
" id="ArialMT-105"/>
       <path d="M 6.59375 0 
L 6.59375 51.859375 
L 14.5 51.859375 
L 14.5 44.484375 
Q 20.21875 53.03125 31 53.03125 
Q 35.6875 53.03125 39.625 51.34375 
Q 43.5625 49.65625 45.515625 46.921875 
Q 47.46875 44.1875 48.25 40.4375 
Q 48.734375 37.984375 48.734375 31.890625 
L 48.734375 0 
L 39.9375 0 
L 39.9375 31.546875 
Q 39.9375 36.921875 38.90625 39.578125 
Q 37.890625 42.234375 35.28125 43.8125 
Q 32.671875 45.40625 29.15625 45.40625 
Q 23.53125 45.40625 19.453125 41.84375 
Q 15.375 38.28125 15.375 28.328125 
L 15.375 0 
z
" id="ArialMT-110"/>
       <path d="M 12.359375 -21.046875 
L 6.0625 -21.046875 
Q 20.65625 2.390625 20.65625 25.875 
Q 20.65625 35.0625 18.5625 44.09375 
Q 16.890625 51.421875 13.921875 58.15625 
Q 12.015625 62.546875 6.0625 72.796875 
L 12.359375 72.796875 
Q 21.53125 60.546875 25.921875 48.1875 
Q 29.6875 37.546875 29.6875 25.921875 
Q 29.6875 12.75 24.625 0.4375 
Q 19.578125 -11.859375 12.359375 -21.046875 
z
" id="ArialMT-41"/>
      </defs>
      <use xlink:href="#ArialMT-70"/>
      <use x="61.083984" xlink:href="#ArialMT-67"/>
      <use x="133.300781" xlink:href="#ArialMT-67"/>
      <use x="205.517578" xlink:href="#ArialMT-32"/>
      <use x="233.300781" xlink:href="#ArialMT-40"/>
      <use x="266.601562" xlink:href="#ArialMT-51"/>
      <use x="322.216797" xlink:href="#ArialMT-45"/>
      <use x="355.517578" xlink:href="#ArialMT-104"/>
      <use x="411.132812" xlink:href="#ArialMT-121"/>
      <use x="461.132812" xlink:href="#ArialMT-100"/>
      <use x="516.748047" xlink:href="#ArialMT-114"/>
      <use x="550.048828" xlink:href="#ArialMT-111"/>
      <use x="605.664062" xlink:href="#ArialMT-120"/>
      <use x="655.664062" xlink:href="#ArialMT-121"/>
      <use x="705.664062" xlink:href="#ArialMT-112"/>
      <use x="761.279297" xlink:href="#ArialMT-114"/>
      <use x="794.580078" xlink:href="#ArialMT-111"/>
      <use x="850.195312" xlink:href="#ArialMT-112"/>
      <use x="905.810547" xlink:href="#ArialMT-105"/>
      <use x="928.027344" xlink:href="#ArialMT-111"/>
      <use x="983.642578" xlink:href="#ArialMT-110"/>
      <use x="1039.257812" xlink:href="#ArialMT-97"/>
      <use x="1094.873047" xlink:href="#ArialMT-116"/>
      <use x="1122.65625" xlink:href="#ArialMT-101"/>
      <use x="1178.271484" xlink:href="#ArialMT-41"/>
     </g>
    </g>
   </g>
   <g id="patch_3">
    <path clip-path="url(#p9ad5662fc7)" d="M 55.674 236.930876 
L 69.066 236.930876 
L 69.066 234.614234 
L 55.674 234.614234 
L 55.674 236.930876 
z
" style="fill:#ea96a3;stroke:#464646;stroke-linejoin:miter;stroke-width:2.25;"/>
   </g>
   <g id="patch_4">
    <path clip-path="url(#p9ad5662fc7)" d="M 72.414 54.373203 
L 85.806 54.373203 
L 85.806 50.998693 
L 72.414 50.998693 
L 72.414 54.373203 
z
" style="fill:#e79683;stroke:#464646;stroke-linejoin:miter;stroke-width:2.25;"/>
   </g>
   <g id="patch_5">
    <path clip-path="url(#p9ad5662fc7)" d="M 89.154 83.760583 
L 102.546 83.760583 
L 102.546 83.072768 
L 89.154 83.072768 
L 89.154 83.760583 
z
" style="fill:#d7944e;stroke:#464646;stroke-linejoin:miter;stroke-width:2.25;"/>
   </g>
   <g id="patch_6">
    <path clip-path="url(#p9ad5662fc7)" d="M 105.894 111.24615 
L 119.286 111.24615 
L 119.286 108.83003 
L 105.894 108.83003 
L 105.894 111.24615 
z
" style="fill:#bf9a4a;stroke:#464646;stroke-linejoin:miter;stroke-width:2.25;"/>
   </g>
   <g id="patch_7">
    <path clip-path="url(#p9ad5662fc7)" d="M 122.634 127.194094 
L 136.026 127.194094 
L 136.026 125.250933 
L 122.634 125.250933 
L 122.634 127.194094 
z
" style="fill:#ab9e47;stroke:#464646;stroke-linejoin:miter;stroke-width:2.25;"/>
   </g>
   <g id="patch_8">
    <path clip-path="url(#p9ad5662fc7)" d="M 139.374 126.826644 
L 152.766 126.826644 
L 152.766 124.851107 
L 139.374 124.851107 
L 139.374 126.826644 
z
" style="fill:#98a246;stroke:#464646;stroke-linejoin:miter;stroke-width:2.25;"/>
   </g>
   <g id="patch_9">
    <path clip-path="url(#p9ad5662fc7)" d="M 156.114 112.060489 
L 169.506 112.060489 
L 169.506 110.541647 
L 156.114 110.541647 
L 156.114 112.060489 
z
" style="fill:#7fa946;stroke:#464646;stroke-linejoin:miter;stroke-width:2.25;"/>
   </g>
   <g id="patch_10">
    <path clip-path="url(#p9ad5662fc7)" d="M 172.854 112.831238 
L 186.246 112.831238 
L 186.246 111.049107 
L 172.854 111.049107 
L 172.854 112.831238 
z
" style="fill:#48b052;stroke:#464646;stroke-linejoin:miter;stroke-width:2.25;"/>
   </g>
   <g id="patch_11">
    <path clip-path="url(#p9ad5662fc7)" d="M 189.594 114.431245 
L 202.986 114.431245 
L 202.986 110.791235 
L 189.594 110.791235 
L 189.594 114.431245 
z
" style="fill:#49ae83;stroke:#464646;stroke-linejoin:miter;stroke-width:2.25;"/>
   </g>
   <g id="patch_12">
    <path clip-path="url(#p9ad5662fc7)" d="M 206.334 114.220014 
L 219.726 114.220014 
L 219.726 112.181953 
L 206.334 112.181953 
L 206.334 114.220014 
z
" style="fill:#4aad96;stroke:#464646;stroke-linejoin:miter;stroke-width:2.25;"/>
   </g>
   <g id="patch_13">
    <path clip-path="url(#p9ad5662fc7)" d="M 223.074 122.459176 
L 236.466 122.459176 
L 236.466 122.062133 
L 223.074 122.062133 
L 223.074 122.459176 
z
" style="fill:#4baba4;stroke:#464646;stroke-linejoin:miter;stroke-width:2.25;"/>
   </g>
   <g id="patch_14">
    <path clip-path="url(#p9ad5662fc7)" d="M 239.814 115.835964 
L 253.206 115.835964 
L 253.206 113.895414 
L 239.814 113.895414 
L 239.814 115.835964 
z
" style="fill:#4dabb2;stroke:#464646;stroke-linejoin:miter;stroke-width:2.25;"/>
   </g>
   <g id="patch_15">
    <path clip-path="url(#p9ad5662fc7)" d="M 256.554 115.645575 
L 269.946 115.645575 
L 269.946 114.669845 
L 256.554 114.669845 
L 256.554 115.645575 
z
" style="fill:#50acc3;stroke:#464646;stroke-linejoin:miter;stroke-width:2.25;"/>
   </g>
   <g id="patch_16">
    <path clip-path="url(#p9ad5662fc7)" d="M 273.294 116.017973 
L 286.686 116.017973 
L 286.686 114.704408 
L 273.294 114.704408 
L 273.294 116.017973 
z
" style="fill:#56addb;stroke:#464646;stroke-linejoin:miter;stroke-width:2.25;"/>
   </g>
   <g id="patch_17">
    <path clip-path="url(#p9ad5662fc7)" d="M 290.034 116.419359 
L 303.426 116.419359 
L 303.426 114.67325 
L 290.034 114.67325 
L 290.034 116.419359 
z
" style="fill:#94aee8;stroke:#464646;stroke-linejoin:miter;stroke-width:2.25;"/>
   </g>
   <g id="patch_18">
    <path clip-path="url(#p9ad5662fc7)" d="M 306.774 116.207862 
L 320.166 116.207862 
L 320.166 115.182299 
L 306.774 115.182299 
L 306.774 116.207862 
z
" style="fill:#b6a8eb;stroke:#464646;stroke-linejoin:miter;stroke-width:2.25;"/>
   </g>
   <g id="patch_19">
    <path clip-path="url(#p9ad5662fc7)" d="M 323.514 122.03892 
L 336.906 122.03892 
L 336.906 119.812775 
L 323.514 119.812775 
L 323.514 122.03892 
z
" style="fill:#ce9be9;stroke:#464646;stroke-linejoin:miter;stroke-width:2.25;"/>
   </g>
   <g id="patch_20">
    <path clip-path="url(#p9ad5662fc7)" d="M 340.254 121.967265 
L 353.646 121.967265 
L 353.646 120.325288 
L 340.254 120.325288 
L 340.254 121.967265 
z
" style="fill:#e689e4;stroke:#464646;stroke-linejoin:miter;stroke-width:2.25;"/>
   </g>
   <g id="patch_21">
    <path clip-path="url(#p9ad5662fc7)" d="M 356.994 121.533498 
L 370.386 121.533498 
L 370.386 120.213282 
L 356.994 120.213282 
L 356.994 121.533498 
z
" style="fill:#e88fcc;stroke:#464646;stroke-linejoin:miter;stroke-width:2.25;"/>
   </g>
   <g id="patch_22">
    <path clip-path="url(#p9ad5662fc7)" d="M 373.734 121.067086 
L 387.126 121.067086 
L 387.126 120.525439 
L 373.734 120.525439 
L 373.734 121.067086 
z
" style="fill:#e993b9;stroke:#464646;stroke-linejoin:miter;stroke-width:2.25;"/>
   </g>
   <g id="LineCollection_1">
    <path clip-path="url(#p9ad5662fc7)" d="M 62.37 118.426712 
L 380.43 118.426712 
" style="fill:none;stroke:#4c72b0;stroke-dasharray:8.325,3.6;stroke-dashoffset:0;stroke-width:2.25;"/>
   </g>
   <g id="line2d_25">
    <path clip-path="url(#p9ad5662fc7)" d="M 62.37 236.930876 
L 62.37 240.288806 
" style="fill:none;stroke:#464646;stroke-linecap:round;stroke-width:2.25;"/>
   </g>
   <g id="line2d_26">
    <path clip-path="url(#p9ad5662fc7)" d="M 62.37 234.614234 
L 62.37 231.303495 
" style="fill:none;stroke:#464646;stroke-linecap:round;stroke-width:2.25;"/>
   </g>
   <g id="line2d_27">
    <path clip-path="url(#p9ad5662fc7)" d="M 59.022 240.288806 
L 65.718 240.288806 
" style="fill:none;stroke:#464646;stroke-linecap:round;stroke-width:2.25;"/>
   </g>
   <g id="line2d_28">
    <path clip-path="url(#p9ad5662fc7)" d="M 59.022 231.303495 
L 65.718 231.303495 
" style="fill:none;stroke:#464646;stroke-linecap:round;stroke-width:2.25;"/>
   </g>
   <g id="line2d_29"/>
   <g id="line2d_30">
    <path clip-path="url(#p9ad5662fc7)" d="M 79.11 54.373203 
L 79.11 59.215977 
" style="fill:none;stroke:#464646;stroke-linecap:round;stroke-width:2.25;"/>
   </g>
   <g id="line2d_31">
    <path clip-path="url(#p9ad5662fc7)" d="M 79.11 50.998693 
L 79.11 45.96047 
" style="fill:none;stroke:#464646;stroke-linecap:round;stroke-width:2.25;"/>
   </g>
   <g id="line2d_32">
    <path clip-path="url(#p9ad5662fc7)" d="M 75.762 59.215977 
L 82.458 59.215977 
" style="fill:none;stroke:#464646;stroke-linecap:round;stroke-width:2.25;"/>
   </g>
   <g id="line2d_33">
    <path clip-path="url(#p9ad5662fc7)" d="M 75.762 45.96047 
L 82.458 45.96047 
" style="fill:none;stroke:#464646;stroke-linecap:round;stroke-width:2.25;"/>
   </g>
   <g id="line2d_34"/>
   <g id="line2d_35">
    <path clip-path="url(#p9ad5662fc7)" d="M 95.85 83.760583 
L 95.85 84.755469 
" style="fill:none;stroke:#464646;stroke-linecap:round;stroke-width:2.25;"/>
   </g>
   <g id="line2d_36">
    <path clip-path="url(#p9ad5662fc7)" d="M 95.85 83.072768 
L 95.85 82.237873 
" style="fill:none;stroke:#464646;stroke-linecap:round;stroke-width:2.25;"/>
   </g>
   <g id="line2d_37">
    <path clip-path="url(#p9ad5662fc7)" d="M 92.502 84.755469 
L 99.198 84.755469 
" style="fill:none;stroke:#464646;stroke-linecap:round;stroke-width:2.25;"/>
   </g>
   <g id="line2d_38">
    <path clip-path="url(#p9ad5662fc7)" d="M 92.502 82.237873 
L 99.198 82.237873 
" style="fill:none;stroke:#464646;stroke-linecap:round;stroke-width:2.25;"/>
   </g>
   <g id="line2d_39"/>
   <g id="line2d_40">
    <path clip-path="url(#p9ad5662fc7)" d="M 112.59 111.24615 
L 112.59 114.741533 
" style="fill:none;stroke:#464646;stroke-linecap:round;stroke-width:2.25;"/>
   </g>
   <g id="line2d_41">
    <path clip-path="url(#p9ad5662fc7)" d="M 112.59 108.83003 
L 112.59 105.239861 
" style="fill:none;stroke:#464646;stroke-linecap:round;stroke-width:2.25;"/>
   </g>
   <g id="line2d_42">
    <path clip-path="url(#p9ad5662fc7)" d="M 109.242 114.741533 
L 115.938 114.741533 
" style="fill:none;stroke:#464646;stroke-linecap:round;stroke-width:2.25;"/>
   </g>
   <g id="line2d_43">
    <path clip-path="url(#p9ad5662fc7)" d="M 109.242 105.239861 
L 115.938 105.239861 
" style="fill:none;stroke:#464646;stroke-linecap:round;stroke-width:2.25;"/>
   </g>
   <g id="line2d_44"/>
   <g id="line2d_45">
    <path clip-path="url(#p9ad5662fc7)" d="M 129.33 127.194094 
L 129.33 129.923293 
" style="fill:none;stroke:#464646;stroke-linecap:round;stroke-width:2.25;"/>
   </g>
   <g id="line2d_46">
    <path clip-path="url(#p9ad5662fc7)" d="M 129.33 125.250933 
L 129.33 122.527665 
" style="fill:none;stroke:#464646;stroke-linecap:round;stroke-width:2.25;"/>
   </g>
   <g id="line2d_47">
    <path clip-path="url(#p9ad5662fc7)" d="M 125.982 129.923293 
L 132.678 129.923293 
" style="fill:none;stroke:#464646;stroke-linecap:round;stroke-width:2.25;"/>
   </g>
   <g id="line2d_48">
    <path clip-path="url(#p9ad5662fc7)" d="M 125.982 122.527665 
L 132.678 122.527665 
" style="fill:none;stroke:#464646;stroke-linecap:round;stroke-width:2.25;"/>
   </g>
   <g id="line2d_49"/>
   <g id="line2d_50">
    <path clip-path="url(#p9ad5662fc7)" d="M 146.07 126.826644 
L 146.07 129.76392 
" style="fill:none;stroke:#464646;stroke-linecap:round;stroke-width:2.25;"/>
   </g>
   <g id="line2d_51">
    <path clip-path="url(#p9ad5662fc7)" d="M 146.07 124.851107 
L 146.07 121.895919 
" style="fill:none;stroke:#464646;stroke-linecap:round;stroke-width:2.25;"/>
   </g>
   <g id="line2d_52">
    <path clip-path="url(#p9ad5662fc7)" d="M 142.722 129.76392 
L 149.418 129.76392 
" style="fill:none;stroke:#464646;stroke-linecap:round;stroke-width:2.25;"/>
   </g>
   <g id="line2d_53">
    <path clip-path="url(#p9ad5662fc7)" d="M 142.722 121.895919 
L 149.418 121.895919 
" style="fill:none;stroke:#464646;stroke-linecap:round;stroke-width:2.25;"/>
   </g>
   <g id="line2d_54"/>
   <g id="line2d_55">
    <path clip-path="url(#p9ad5662fc7)" d="M 162.81 112.060489 
L 162.81 114.271278 
" style="fill:none;stroke:#464646;stroke-linecap:round;stroke-width:2.25;"/>
   </g>
   <g id="line2d_56">
    <path clip-path="url(#p9ad5662fc7)" d="M 162.81 110.541647 
L 162.81 108.476353 
" style="fill:none;stroke:#464646;stroke-linecap:round;stroke-width:2.25;"/>
   </g>
   <g id="line2d_57">
    <path clip-path="url(#p9ad5662fc7)" d="M 159.462 114.271278 
L 166.158 114.271278 
" style="fill:none;stroke:#464646;stroke-linecap:round;stroke-width:2.25;"/>
   </g>
   <g id="line2d_58">
    <path clip-path="url(#p9ad5662fc7)" d="M 159.462 108.476353 
L 166.158 108.476353 
" style="fill:none;stroke:#464646;stroke-linecap:round;stroke-width:2.25;"/>
   </g>
   <g id="line2d_59"/>
   <g id="line2d_60">
    <path clip-path="url(#p9ad5662fc7)" d="M 179.55 112.831238 
L 179.55 115.404221 
" style="fill:none;stroke:#464646;stroke-linecap:round;stroke-width:2.25;"/>
   </g>
   <g id="line2d_61">
    <path clip-path="url(#p9ad5662fc7)" d="M 179.55 111.049107 
L 179.55 108.548821 
" style="fill:none;stroke:#464646;stroke-linecap:round;stroke-width:2.25;"/>
   </g>
   <g id="line2d_62">
    <path clip-path="url(#p9ad5662fc7)" d="M 176.202 115.404221 
L 182.898 115.404221 
" style="fill:none;stroke:#464646;stroke-linecap:round;stroke-width:2.25;"/>
   </g>
   <g id="line2d_63">
    <path clip-path="url(#p9ad5662fc7)" d="M 176.202 108.548821 
L 182.898 108.548821 
" style="fill:none;stroke:#464646;stroke-linecap:round;stroke-width:2.25;"/>
   </g>
   <g id="line2d_64"/>
   <g id="line2d_65">
    <path clip-path="url(#p9ad5662fc7)" d="M 196.29 114.431245 
L 196.29 119.307426 
" style="fill:none;stroke:#464646;stroke-linecap:round;stroke-width:2.25;"/>
   </g>
   <g id="line2d_66">
    <path clip-path="url(#p9ad5662fc7)" d="M 196.29 110.791235 
L 196.29 105.586788 
" style="fill:none;stroke:#464646;stroke-linecap:round;stroke-width:2.25;"/>
   </g>
   <g id="line2d_67">
    <path clip-path="url(#p9ad5662fc7)" d="M 192.942 119.307426 
L 199.638 119.307426 
" style="fill:none;stroke:#464646;stroke-linecap:round;stroke-width:2.25;"/>
   </g>
   <g id="line2d_68">
    <path clip-path="url(#p9ad5662fc7)" d="M 192.942 105.586788 
L 199.638 105.586788 
" style="fill:none;stroke:#464646;stroke-linecap:round;stroke-width:2.25;"/>
   </g>
   <g id="line2d_69"/>
   <g id="line2d_70">
    <path clip-path="url(#p9ad5662fc7)" d="M 213.03 114.220014 
L 213.03 116.495721 
" style="fill:none;stroke:#464646;stroke-linecap:round;stroke-width:2.25;"/>
   </g>
   <g id="line2d_71">
    <path clip-path="url(#p9ad5662fc7)" d="M 213.03 112.181953 
L 213.03 109.245671 
" style="fill:none;stroke:#464646;stroke-linecap:round;stroke-width:2.25;"/>
   </g>
   <g id="line2d_72">
    <path clip-path="url(#p9ad5662fc7)" d="M 209.682 116.495721 
L 216.378 116.495721 
" style="fill:none;stroke:#464646;stroke-linecap:round;stroke-width:2.25;"/>
   </g>
   <g id="line2d_73">
    <path clip-path="url(#p9ad5662fc7)" d="M 209.682 109.245671 
L 216.378 109.245671 
" style="fill:none;stroke:#464646;stroke-linecap:round;stroke-width:2.25;"/>
   </g>
   <g id="line2d_74"/>
   <g id="line2d_75">
    <path clip-path="url(#p9ad5662fc7)" d="M 229.77 122.459176 
L 229.77 123.043978 
" style="fill:none;stroke:#464646;stroke-linecap:round;stroke-width:2.25;"/>
   </g>
   <g id="line2d_76">
    <path clip-path="url(#p9ad5662fc7)" d="M 229.77 122.062133 
L 229.77 121.57006 
" style="fill:none;stroke:#464646;stroke-linecap:round;stroke-width:2.25;"/>
   </g>
   <g id="line2d_77">
    <path clip-path="url(#p9ad5662fc7)" d="M 226.422 123.043978 
L 233.118 123.043978 
" style="fill:none;stroke:#464646;stroke-linecap:round;stroke-width:2.25;"/>
   </g>
   <g id="line2d_78">
    <path clip-path="url(#p9ad5662fc7)" d="M 226.422 121.57006 
L 233.118 121.57006 
" style="fill:none;stroke:#464646;stroke-linecap:round;stroke-width:2.25;"/>
   </g>
   <g id="line2d_79"/>
   <g id="line2d_80">
    <path clip-path="url(#p9ad5662fc7)" d="M 246.51 115.835964 
L 246.51 118.529641 
" style="fill:none;stroke:#464646;stroke-linecap:round;stroke-width:2.25;"/>
   </g>
   <g id="line2d_81">
    <path clip-path="url(#p9ad5662fc7)" d="M 246.51 113.895414 
L 246.51 111.031951 
" style="fill:none;stroke:#464646;stroke-linecap:round;stroke-width:2.25;"/>
   </g>
   <g id="line2d_82">
    <path clip-path="url(#p9ad5662fc7)" d="M 243.162 118.529641 
L 249.858 118.529641 
" style="fill:none;stroke:#464646;stroke-linecap:round;stroke-width:2.25;"/>
   </g>
   <g id="line2d_83">
    <path clip-path="url(#p9ad5662fc7)" d="M 243.162 111.031951 
L 249.858 111.031951 
" style="fill:none;stroke:#464646;stroke-linecap:round;stroke-width:2.25;"/>
   </g>
   <g id="line2d_84"/>
   <g id="line2d_85">
    <path clip-path="url(#p9ad5662fc7)" d="M 263.25 115.645575 
L 263.25 116.875731 
" style="fill:none;stroke:#464646;stroke-linecap:round;stroke-width:2.25;"/>
   </g>
   <g id="line2d_86">
    <path clip-path="url(#p9ad5662fc7)" d="M 263.25 114.669845 
L 263.25 113.333075 
" style="fill:none;stroke:#464646;stroke-linecap:round;stroke-width:2.25;"/>
   </g>
   <g id="line2d_87">
    <path clip-path="url(#p9ad5662fc7)" d="M 259.902 116.875731 
L 266.598 116.875731 
" style="fill:none;stroke:#464646;stroke-linecap:round;stroke-width:2.25;"/>
   </g>
   <g id="line2d_88">
    <path clip-path="url(#p9ad5662fc7)" d="M 259.902 113.333075 
L 266.598 113.333075 
" style="fill:none;stroke:#464646;stroke-linecap:round;stroke-width:2.25;"/>
   </g>
   <g id="line2d_89"/>
   <g id="line2d_90">
    <path clip-path="url(#p9ad5662fc7)" d="M 279.99 116.017973 
L 279.99 117.844742 
" style="fill:none;stroke:#464646;stroke-linecap:round;stroke-width:2.25;"/>
   </g>
   <g id="line2d_91">
    <path clip-path="url(#p9ad5662fc7)" d="M 279.99 114.704408 
L 279.99 112.924032 
" style="fill:none;stroke:#464646;stroke-linecap:round;stroke-width:2.25;"/>
   </g>
   <g id="line2d_92">
    <path clip-path="url(#p9ad5662fc7)" d="M 276.642 117.844742 
L 283.338 117.844742 
" style="fill:none;stroke:#464646;stroke-linecap:round;stroke-width:2.25;"/>
   </g>
   <g id="line2d_93">
    <path clip-path="url(#p9ad5662fc7)" d="M 276.642 112.924032 
L 283.338 112.924032 
" style="fill:none;stroke:#464646;stroke-linecap:round;stroke-width:2.25;"/>
   </g>
   <g id="line2d_94"/>
   <g id="line2d_95">
    <path clip-path="url(#p9ad5662fc7)" d="M 296.73 116.419359 
L 296.73 119.008766 
" style="fill:none;stroke:#464646;stroke-linecap:round;stroke-width:2.25;"/>
   </g>
   <g id="line2d_96">
    <path clip-path="url(#p9ad5662fc7)" d="M 296.73 114.67325 
L 296.73 112.069757 
" style="fill:none;stroke:#464646;stroke-linecap:round;stroke-width:2.25;"/>
   </g>
   <g id="line2d_97">
    <path clip-path="url(#p9ad5662fc7)" d="M 293.382 119.008766 
L 300.078 119.008766 
" style="fill:none;stroke:#464646;stroke-linecap:round;stroke-width:2.25;"/>
   </g>
   <g id="line2d_98">
    <path clip-path="url(#p9ad5662fc7)" d="M 293.382 112.069757 
L 300.078 112.069757 
" style="fill:none;stroke:#464646;stroke-linecap:round;stroke-width:2.25;"/>
   </g>
   <g id="line2d_99"/>
   <g id="line2d_100">
    <path clip-path="url(#p9ad5662fc7)" d="M 313.47 116.207862 
L 313.47 117.656302 
" style="fill:none;stroke:#464646;stroke-linecap:round;stroke-width:2.25;"/>
   </g>
   <g id="line2d_101">
    <path clip-path="url(#p9ad5662fc7)" d="M 313.47 115.182299 
L 313.47 113.673007 
" style="fill:none;stroke:#464646;stroke-linecap:round;stroke-width:2.25;"/>
   </g>
   <g id="line2d_102">
    <path clip-path="url(#p9ad5662fc7)" d="M 310.122 117.656302 
L 316.818 117.656302 
" style="fill:none;stroke:#464646;stroke-linecap:round;stroke-width:2.25;"/>
   </g>
   <g id="line2d_103">
    <path clip-path="url(#p9ad5662fc7)" d="M 310.122 113.673007 
L 316.818 113.673007 
" style="fill:none;stroke:#464646;stroke-linecap:round;stroke-width:2.25;"/>
   </g>
   <g id="line2d_104"/>
   <g id="line2d_105">
    <path clip-path="url(#p9ad5662fc7)" d="M 330.21 122.03892 
L 330.21 125.353605 
" style="fill:none;stroke:#464646;stroke-linecap:round;stroke-width:2.25;"/>
   </g>
   <g id="line2d_106">
    <path clip-path="url(#p9ad5662fc7)" d="M 330.21 119.812775 
L 330.21 116.530448 
" style="fill:none;stroke:#464646;stroke-linecap:round;stroke-width:2.25;"/>
   </g>
   <g id="line2d_107">
    <path clip-path="url(#p9ad5662fc7)" d="M 326.862 125.353605 
L 333.558 125.353605 
" style="fill:none;stroke:#464646;stroke-linecap:round;stroke-width:2.25;"/>
   </g>
   <g id="line2d_108">
    <path clip-path="url(#p9ad5662fc7)" d="M 326.862 116.530448 
L 333.558 116.530448 
" style="fill:none;stroke:#464646;stroke-linecap:round;stroke-width:2.25;"/>
   </g>
   <g id="line2d_109"/>
   <g id="line2d_110">
    <path clip-path="url(#p9ad5662fc7)" d="M 346.95 121.967265 
L 346.95 124.124176 
" style="fill:none;stroke:#464646;stroke-linecap:round;stroke-width:2.25;"/>
   </g>
   <g id="line2d_111">
    <path clip-path="url(#p9ad5662fc7)" d="M 346.95 120.325288 
L 346.95 118.210475 
" style="fill:none;stroke:#464646;stroke-linecap:round;stroke-width:2.25;"/>
   </g>
   <g id="line2d_112">
    <path clip-path="url(#p9ad5662fc7)" d="M 343.602 124.124176 
L 350.298 124.124176 
" style="fill:none;stroke:#464646;stroke-linecap:round;stroke-width:2.25;"/>
   </g>
   <g id="line2d_113">
    <path clip-path="url(#p9ad5662fc7)" d="M 343.602 118.210475 
L 350.298 118.210475 
" style="fill:none;stroke:#464646;stroke-linecap:round;stroke-width:2.25;"/>
   </g>
   <g id="line2d_114"/>
   <g id="line2d_115">
    <path clip-path="url(#p9ad5662fc7)" d="M 363.69 121.533498 
L 363.69 123.460114 
" style="fill:none;stroke:#464646;stroke-linecap:round;stroke-width:2.25;"/>
   </g>
   <g id="line2d_116">
    <path clip-path="url(#p9ad5662fc7)" d="M 363.69 120.213282 
L 363.69 118.646082 
" style="fill:none;stroke:#464646;stroke-linecap:round;stroke-width:2.25;"/>
   </g>
   <g id="line2d_117">
    <path clip-path="url(#p9ad5662fc7)" d="M 360.342 123.460114 
L 367.038 123.460114 
" style="fill:none;stroke:#464646;stroke-linecap:round;stroke-width:2.25;"/>
   </g>
   <g id="line2d_118">
    <path clip-path="url(#p9ad5662fc7)" d="M 360.342 118.646082 
L 367.038 118.646082 
" style="fill:none;stroke:#464646;stroke-linecap:round;stroke-width:2.25;"/>
   </g>
   <g id="line2d_119"/>
   <g id="line2d_120">
    <path clip-path="url(#p9ad5662fc7)" d="M 380.43 121.067086 
L 380.43 121.806999 
" style="fill:none;stroke:#464646;stroke-linecap:round;stroke-width:2.25;"/>
   </g>
   <g id="line2d_121">
    <path clip-path="url(#p9ad5662fc7)" d="M 380.43 120.525439 
L 380.43 119.864504 
" style="fill:none;stroke:#464646;stroke-linecap:round;stroke-width:2.25;"/>
   </g>
   <g id="line2d_122">
    <path clip-path="url(#p9ad5662fc7)" d="M 377.082 121.806999 
L 383.778 121.806999 
" style="fill:none;stroke:#464646;stroke-linecap:round;stroke-width:2.25;"/>
   </g>
   <g id="line2d_123">
    <path clip-path="url(#p9ad5662fc7)" d="M 377.082 119.864504 
L 383.778 119.864504 
" style="fill:none;stroke:#464646;stroke-linecap:round;stroke-width:2.25;"/>
   </g>
   <g id="line2d_124"/>
   <g id="line2d_125">
    <path clip-path="url(#p9ad5662fc7)" d="M 55.674 235.745911 
L 69.066 235.745911 
" style="fill:none;stroke:#464646;stroke-linecap:round;stroke-width:2.25;"/>
   </g>
   <g id="line2d_126">
    <path clip-path="url(#p9ad5662fc7)" d="M 72.414 52.753481 
L 85.806 52.753481 
" style="fill:none;stroke:#464646;stroke-linecap:round;stroke-width:2.25;"/>
   </g>
   <g id="line2d_127">
    <path clip-path="url(#p9ad5662fc7)" d="M 89.154 83.380647 
L 102.546 83.380647 
" style="fill:none;stroke:#464646;stroke-linecap:round;stroke-width:2.25;"/>
   </g>
   <g id="line2d_128">
    <path clip-path="url(#p9ad5662fc7)" d="M 105.894 109.967236 
L 119.286 109.967236 
" style="fill:none;stroke:#464646;stroke-linecap:round;stroke-width:2.25;"/>
   </g>
   <g id="line2d_129">
    <path clip-path="url(#p9ad5662fc7)" d="M 122.634 126.103329 
L 136.026 126.103329 
" style="fill:none;stroke:#464646;stroke-linecap:round;stroke-width:2.25;"/>
   </g>
   <g id="line2d_130">
    <path clip-path="url(#p9ad5662fc7)" d="M 139.374 125.808795 
L 152.766 125.808795 
" style="fill:none;stroke:#464646;stroke-linecap:round;stroke-width:2.25;"/>
   </g>
   <g id="line2d_131">
    <path clip-path="url(#p9ad5662fc7)" d="M 156.114 111.373331 
L 169.506 111.373331 
" style="fill:none;stroke:#464646;stroke-linecap:round;stroke-width:2.25;"/>
   </g>
   <g id="line2d_132">
    <path clip-path="url(#p9ad5662fc7)" d="M 172.854 112.001181 
L 186.246 112.001181 
" style="fill:none;stroke:#464646;stroke-linecap:round;stroke-width:2.25;"/>
   </g>
   <g id="line2d_133">
    <path clip-path="url(#p9ad5662fc7)" d="M 189.594 112.642906 
L 202.986 112.642906 
" style="fill:none;stroke:#464646;stroke-linecap:round;stroke-width:2.25;"/>
   </g>
   <g id="line2d_134">
    <path clip-path="url(#p9ad5662fc7)" d="M 206.334 113.220949 
L 219.726 113.220949 
" style="fill:none;stroke:#464646;stroke-linecap:round;stroke-width:2.25;"/>
   </g>
   <g id="line2d_135">
    <path clip-path="url(#p9ad5662fc7)" d="M 223.074 122.264965 
L 236.466 122.264965 
" style="fill:none;stroke:#464646;stroke-linecap:round;stroke-width:2.25;"/>
   </g>
   <g id="line2d_136">
    <path clip-path="url(#p9ad5662fc7)" d="M 239.814 114.935693 
L 253.206 114.935693 
" style="fill:none;stroke:#464646;stroke-linecap:round;stroke-width:2.25;"/>
   </g>
   <g id="line2d_137">
    <path clip-path="url(#p9ad5662fc7)" d="M 256.554 115.15769 
L 269.946 115.15769 
" style="fill:none;stroke:#464646;stroke-linecap:round;stroke-width:2.25;"/>
   </g>
   <g id="line2d_138">
    <path clip-path="url(#p9ad5662fc7)" d="M 273.294 115.335417 
L 286.686 115.335417 
" style="fill:none;stroke:#464646;stroke-linecap:round;stroke-width:2.25;"/>
   </g>
   <g id="line2d_139">
    <path clip-path="url(#p9ad5662fc7)" d="M 290.034 115.547832 
L 303.426 115.547832 
" style="fill:none;stroke:#464646;stroke-linecap:round;stroke-width:2.25;"/>
   </g>
   <g id="line2d_140">
    <path clip-path="url(#p9ad5662fc7)" d="M 306.774 115.692405 
L 320.166 115.692405 
" style="fill:none;stroke:#464646;stroke-linecap:round;stroke-width:2.25;"/>
   </g>
   <g id="line2d_141">
    <path clip-path="url(#p9ad5662fc7)" d="M 323.514 121.074872 
L 336.906 121.074872 
" style="fill:none;stroke:#464646;stroke-linecap:round;stroke-width:2.25;"/>
   </g>
   <g id="line2d_142">
    <path clip-path="url(#p9ad5662fc7)" d="M 340.254 121.011395 
L 353.646 121.011395 
" style="fill:none;stroke:#464646;stroke-linecap:round;stroke-width:2.25;"/>
   </g>
   <g id="line2d_143">
    <path clip-path="url(#p9ad5662fc7)" d="M 356.994 120.834485 
L 370.386 120.834485 
" style="fill:none;stroke:#464646;stroke-linecap:round;stroke-width:2.25;"/>
   </g>
   <g id="line2d_144">
    <path clip-path="url(#p9ad5662fc7)" d="M 373.734 120.781677 
L 387.126 120.781677 
" style="fill:none;stroke:#464646;stroke-linecap:round;stroke-width:2.25;"/>
   </g>
   <g id="patch_23">
    <path d="M 54 252 
L 54 34.56 
" style="fill:none;stroke:#262626;stroke-linecap:square;stroke-linejoin:miter;stroke-width:1.875;"/>
   </g>
   <g id="patch_24">
    <path d="M 388.8 252 
L 388.8 34.56 
" style="fill:none;stroke:#262626;stroke-linecap:square;stroke-linejoin:miter;stroke-width:1.875;"/>
   </g>
   <g id="patch_25">
    <path d="M 54 252 
L 388.8 252 
" style="fill:none;stroke:#262626;stroke-linecap:square;stroke-linejoin:miter;stroke-width:1.875;"/>
   </g>
   <g id="patch_26">
    <path d="M 54 34.56 
L 388.8 34.56 
" style="fill:none;stroke:#262626;stroke-linecap:square;stroke-linejoin:miter;stroke-width:1.875;"/>
   </g>
  </g>
 </g>
 <defs>
  <clipPath id="p9ad5662fc7">
   <rect height="217.44" width="334.8" x="54" y="34.56"/>
  </clipPath>
 </defs>
</svg>
